<?xml version="1.0" standalone="no"?>
<!DOCTYPE svg PUBLIC "-//W3C//DTD SVG 20010904//EN"
 "http://www.w3.org/TR/2001/REC-SVG-20010904/DTD/svg10.dtd">
<svg version="1.0" xmlns="http://www.w3.org/2000/svg"
 width="535.000000pt" height="802.000000pt" viewBox="0 0 535.000000 802.000000"
 preserveAspectRatio="xMidYMid meet">
<metadata>
Created by potrace 1.16, written by Peter Selinger 2001-2019
</metadata>
<g transform="translate(0.000000,802.000000) scale(0.100000,-0.100000)"
fill="#000000" stroke="none">
<path d="M0 4010 l0 -4010 2675 0 2675 0 0 4010 0 4010 -2675 0 -2675 0 0
-4010z m2307 1511 c7 7 19 -5 36 -34 15 -25 41 -57 59 -73 49 -41 146 -82 208
-87 30 -2 49 -2 41 1 -8 3 4 13 30 27 24 12 59 30 77 39 36 20 63 18 70 -4 5
-13 3 -13 -11 -1 -16 12 -21 9 -18 -11 2 -11 -13 -10 -25 2 -8 8 -15 6 -23 -4
-22 -26 32 -36 102 -18 20 6 46 8 57 5 11 -3 20 -1 20 4 0 20 52 0 60 -22 5
-13 17 -26 28 -29 10 -4 25 -17 32 -30 7 -14 18 -22 26 -19 8 3 14 0 14 -7 0
-14 26 -41 32 -34 3 3 3 -7 1 -21 -3 -14 -1 -25 3 -25 5 0 15 -13 22 -30 8
-16 18 -30 23 -30 5 0 23 -13 39 -30 16 -16 39 -30 51 -30 13 0 19 -5 16 -13
-3 -9 5 -12 29 -12 19 1 34 -3 34 -8 0 -5 11 -20 26 -33 l25 -24 -38 6 c-21 3
-46 10 -55 15 -17 9 -48 3 -48 -10 0 -3 -51 -5 -114 -3 -113 3 -114 3 -135
-24 -31 -39 -27 -54 13 -54 19 0 36 5 38 10 2 7 13 7 34 0 22 -8 40 -7 69 3
43 14 85 12 85 -5 0 -6 9 -8 20 -5 11 3 20 1 20 -4 0 -5 13 -9 29 -9 27 0 28
-2 26 -40 -2 -41 -29 -75 -49 -62 -13 7 -41 10 -146 16 -61 3 -95 0 -120 -11
-19 -8 -46 -17 -60 -19 -29 -6 -52 -24 -29 -24 8 0 20 5 27 12 9 9 12 9 12 1
0 -7 -4 -15 -10 -18 -20 -12 -10 -43 18 -53 15 -5 35 -13 45 -17 10 -4 17 -3
17 4 0 6 -7 11 -15 11 -8 0 -15 5 -15 10 0 6 -7 10 -15 10 -8 0 -15 5 -15 10
0 6 5 10 10 10 6 0 19 9 30 20 23 23 40 19 40 -10 0 -28 39 -60 72 -60 31 0
68 31 68 56 0 14 3 14 15 4 24 -20 19 -67 -7 -76 -13 -5 -25 -8 -28 -7 -3 0
-34 3 -70 6 l-65 6 48 -15 c26 -8 47 -20 47 -25 0 -6 21 -10 48 -8 26 1 55 -2
64 -6 20 -8 138 42 152 64 7 12 11 11 22 -4 13 -18 14 -18 14 3 0 27 33 62 58
62 27 0 53 -33 52 -66 -1 -16 0 -36 1 -44 1 -8 1 -23 1 -34 -2 -14 -5 -16 -16
-7 -11 9 -13 3 -12 -39 1 -34 -3 -50 -11 -50 -17 0 -16 -84 1 -133 15 -41 8
-134 -11 -159 -11 -14 -25 -61 -28 -96 -1 -12 -9 -30 -17 -40 -20 -23 -30 -52
-18 -52 6 0 10 -5 10 -11 0 -5 -4 -7 -10 -4 -15 9 -11 -27 5 -49 12 -16 17
-17 30 -6 10 8 15 9 15 1 0 -6 -4 -11 -10 -11 -5 0 -10 -18 -10 -40 0 -33 -3
-40 -19 -40 -11 0 -22 -6 -25 -12 -5 -10 -7 -10 -12 0 -3 6 -11 12 -18 12 -6
0 -12 12 -11 27 0 14 -6 28 -12 30 -7 3 -13 0 -13 -6 0 -22 -83 -142 -91 -130
-11 19 -21 -8 -10 -29 12 -23 5 -33 -16 -25 -10 4 -14 0 -12 -13 4 -27 -19
-64 -40 -64 -9 0 -28 -12 -42 -26 -32 -34 -77 -60 -117 -67 -18 -4 -42 -16
-54 -27 -15 -13 -35 -20 -64 -20 -25 0 -44 -5 -46 -12 -4 -11 -80 -21 -138
-19 -61 2 -170 15 -170 20 0 4 -18 5 -40 3 -25 -3 -40 0 -40 7 0 6 -8 11 -19
11 -10 0 -26 11 -35 25 -17 26 -17 26 -62 -14 -13 -11 -17 -11 -28 4 -9 13
-15 15 -20 7 -4 -7 -5 -16 -2 -21 4 -5 -3 -7 -14 -4 -11 3 -20 13 -20 23 0 24
-31 50 -38 32 -5 -17 -42 14 -42 35 0 8 -5 11 -12 7 -6 -4 -16 -1 -22 7 -6 8
-28 23 -48 33 -26 13 -38 26 -38 40 0 12 -9 27 -20 34 -11 7 -20 20 -20 30 0
9 -7 30 -15 46 -8 15 -15 35 -15 42 0 8 -7 14 -15 14 -13 0 -13 3 -3 20 10 16
10 22 1 28 -19 12 -37 100 -24 116 17 20 13 381 -4 421 -15 33 -26 78 -28 113
-1 12 -7 22 -13 22 -14 0 -12 183 3 202 5 7 13 36 16 65 6 54 40 133 57 133 6
0 10 8 10 18 0 14 -4 12 -20 -8 -28 -37 -31 -20 -4 23 19 29 29 36 47 32 34
-8 52 8 37 34 -10 20 -9 23 9 28 18 4 19 8 9 20 -9 11 -9 16 0 22 16 9 34 71
22 71 -5 0 -9 17 -7 39 1 29 6 37 17 33 9 -3 8 1 -4 10 -15 12 -17 18 -7 36 6
12 16 22 21 22 6 0 10 14 10 31 0 25 3 29 13 20 8 -6 17 -8 20 -4 12 11 8 23
-8 23 -9 0 -15 9 -15 23 0 18 2 19 10 7 8 -12 10 -11 10 7 0 54 56 28 71 -34
6 -23 23 -52 37 -65 l25 -23 -22 38 c-42 69 -45 137 -4 96 6 -6 21 -9 34 -7
l24 4 -25 11 c-14 6 -34 21 -45 34 l-20 23 26 -16 c18 -11 30 -13 36 -7z
m-262 -451 c3 -5 -1 -10 -10 -10 -9 0 -13 5 -10 10 3 6 8 10 10 10 2 0 7 -4
10 -10z m1172 -115 c24 -4 45 -10 48 -15 3 -4 14 -6 25 -3 11 3 20 0 20 -6 0
-16 -52 -13 -74 4 -11 8 -31 15 -45 15 -14 0 -33 5 -41 11 -12 8 -11 9 5 5 11
-2 39 -8 62 -11z m-107 -195 c0 -5 -4 -10 -10 -10 -5 0 -10 5 -10 10 0 6 5 10
10 10 6 0 10 -4 10 -10z m37 -12 c-3 -8 -6 -5 -6 6 -1 11 2 17 5 13 3 -3 4
-12 1 -19z m-1302 -35 l37 -38 -7 -85 c-8 -93 -9 -112 -6 -150 1 -14 1 -94 -1
-178 -3 -122 -7 -155 -18 -162 -25 -13 -58 7 -80 50 -19 37 -20 47 -10 93 11
48 8 63 -26 192 -46 176 -51 222 -28 266 21 42 31 49 70 49 23 0 41 -10 69
-37z m1973 11 c12 -8 22 -23 22 -34 0 -16 -4 -17 -40 -8 -34 9 -44 8 -61 -7
-21 -20 -16 -31 15 -37 15 -2 23 -17 31 -53 12 -52 19 -48 30 18 6 37 25 52
25 20 -1 -44 -21 -156 -36 -195 -8 -24 -22 -67 -29 -96 -12 -49 -12 -54 6 -65
11 -7 19 -23 19 -37 0 -41 -42 -113 -74 -129 -26 -12 -31 -12 -43 5 -18 24
-16 52 3 56 9 2 22 19 28 38 8 24 18 36 34 38 33 5 27 22 -8 22 -26 0 -30 3
-27 23 2 12 2 16 0 10 -3 -7 -11 -13 -19 -13 -18 0 -18 63 -1 104 9 19 10 48
6 85 -4 31 -11 88 -15 127 l-7 71 37 36 c40 40 69 46 104 21z m-1911 -373 c-3
-15 -2 -32 3 -37 6 -6 13 -38 16 -72 4 -35 12 -62 18 -62 7 0 12 -30 13 -80 2
-48 -1 -80 -7 -80 -6 0 -10 18 -10 40 0 39 -26 69 -46 52 -5 -4 -2 1 6 11 19
25 23 57 9 73 -6 7 -8 32 -5 61 3 26 3 42 0 36 -3 -7 -10 -13 -15 -13 -9 0 -5
51 6 88 8 24 17 11 12 -17z m-7 -181 c0 -5 -4 -10 -10 -10 -5 0 -10 5 -10 10
0 6 5 10 10 10 6 0 10 -4 10 -10z m10 -102 c0 -5 -4 -8 -10 -8 -5 0 -10 10
-10 23 0 18 2 19 10 7 5 -8 10 -18 10 -22z m1580 -58 c0 -5 -2 -10 -4 -10 -3
0 -8 5 -11 10 -3 6 -1 10 4 10 6 0 11 -4 11 -10z m-109 -195 c15 10 21 -19 10
-48 -17 -45 -28 -31 -27 36 0 34 2 50 4 34 2 -15 8 -25 13 -22z m-31 -5 c0 -5
-4 -10 -10 -10 -5 0 -10 5 -10 10 0 6 5 10 10 10 6 0 10 -4 10 -10z m-1341
-181 c23 -53 127 -183 198 -248 124 -115 315 -216 427 -228 33 -3 64 -10 67
-15 4 -6 21 -5 45 1 54 15 74 14 52 -2 -12 -9 -14 -17 -7 -30 9 -15 4 -17 -43
-17 -29 0 -96 -7 -148 -14 -52 -8 -104 -14 -114 -13 -23 2 -73 -72 -86 -126
-9 -42 10 -56 45 -33 20 13 26 10 106 -61 46 -41 89 -85 96 -96 17 -31 16 -83
-7 -227 -22 -148 -34 -184 -99 -310 -32 -62 -57 -128 -71 -190 -12 -52 -26
-106 -30 -120 -8 -24 -8 -23 -9 8 -1 17 -5 32 -10 32 -14 0 -21 -56 -21 -168
0 -65 -4 -102 -9 -96 -10 10 -46 226 -86 524 -39 292 -77 492 -155 828 -6 23
-10 52 -9 65 l0 22 9 -22 c5 -13 12 -23 15 -23 8 0 -5 63 -14 70 -14 11 -91
192 -130 306 -38 112 -54 214 -33 214 4 0 13 -14 21 -31z m1497 -66 c-12 -150
-51 -291 -112 -415 -32 -63 -45 -101 -24 -68 23 37 19 -10 -15 -151 -20 -85
-45 -190 -56 -234 -19 -74 -177 -836 -201 -967 -5 -32 -14 -58 -19 -58 -5 0
-9 42 -9 94 0 61 -4 97 -12 102 -6 4 -8 3 -4 -4 3 -6 2 -13 -2 -16 -5 -3 -24
56 -42 130 -18 75 -50 182 -72 237 -57 148 -58 152 -65 268 -5 87 -3 112 11
139 9 18 16 38 16 44 0 13 48 86 88 134 l27 33 17 -21 18 -22 0 28 c-1 68 -18
113 -66 175 -78 102 -74 99 -129 100 -48 1 -49 1 -20 11 39 14 40 15 26 32
-15 18 -11 21 102 57 203 66 373 195 490 372 29 42 53 77 55 77 2 0 1 -35 -2
-77z"/>
<path d="M2428 5313 c7 -3 16 -2 19 1 4 3 -2 6 -13 5 -11 0 -14 -3 -6 -6z"/>
<path d="M3126 5137 c3 -10 9 -15 12 -12 3 3 0 11 -7 18 -10 9 -11 8 -5 -6z"/>
<path d="M2084 5003 c-3 -10 -14 -34 -25 -54 -24 -47 -24 -49 6 -36 18 9 23
17 18 35 -3 13 -1 22 7 22 6 0 9 4 5 9 -3 5 -1 12 5 16 13 8 13 25 0 25 -6 0
-13 -8 -16 -17z"/>
<path d="M2195 4949 c-22 -10 -58 -33 -80 -52 -36 -31 -38 -36 -25 -52 12 -14
12 -19 3 -22 -7 -3 -13 -9 -13 -14 0 -6 7 -6 18 0 13 7 22 7 30 -1 8 -8 13 -6
18 8 10 26 40 54 59 54 8 0 15 5 15 10 0 6 10 11 23 11 17 1 16 3 -8 8 l-30 7
28 7 c15 4 32 5 37 2 5 -3 60 -12 122 -20 62 -8 115 -20 116 -25 2 -6 10 -10
17 -10 8 0 20 -9 28 -20 19 -28 63 -43 86 -28 23 14 25 58 2 56 -47 -4 -73 5
-101 32 -52 51 -81 60 -198 63 -86 3 -116 0 -147 -14z m20 -19 c-3 -5 -11 -10
-16 -10 -6 0 -7 5 -4 10 3 6 11 10 16 10 6 0 7 -4 4 -10z"/>
<path d="M2525 4940 c3 -5 8 -10 11 -10 2 0 4 5 4 10 0 6 -5 10 -11 10 -5 0
-7 -4 -4 -10z"/>
<path d="M2597 4943 c-4 -3 -7 -11 -7 -17 0 -6 5 -5 12 2 6 6 9 14 7 17 -3 3
-9 2 -12 -2z"/>
<path d="M2960 4885 c0 -9 5 -15 11 -13 6 2 11 8 11 13 0 5 -5 11 -11 13 -6 2
-11 -4 -11 -13z"/>
<path d="M2917 4853 c-15 -4 -22 -27 -7 -23 34 7 50 14 50 21 0 9 -13 10 -43
2z"/>
<path d="M2360 4797 c-36 -4 -77 -8 -92 -10 -14 -1 -24 -5 -21 -9 2 -5 -14 -8
-36 -8 -26 0 -41 -5 -41 -12 0 -8 -7 -5 -15 6 -19 24 -22 21 -27 -28 -2 -27 1
-41 12 -46 8 -4 25 -12 38 -19 12 -6 44 -14 70 -18 26 -3 55 -10 65 -15 20
-10 87 0 87 14 0 5 -5 6 -11 3 -18 -11 -99 25 -99 43 1 38 50 64 50 27 0 -20
40 -45 71 -45 30 0 69 40 69 71 0 18 1 18 35 1 19 -9 35 -21 34 -27 0 -10 -48
-35 -107 -56 -17 -6 -32 -18 -32 -26 0 -8 5 -13 11 -11 6 2 10 7 9 12 0 4 34
20 77 35 66 23 78 30 76 48 -2 14 5 23 18 26 34 9 14 24 -41 31 -28 4 -49 10
-46 14 5 9 -72 9 -154 -1z m40 -37 c0 -5 -4 -10 -10 -10 -5 0 -10 5 -10 10 0
6 5 10 10 10 6 0 10 -4 10 -10z"/>
<path d="M2082 4779 c2 -7 10 -15 17 -17 8 -3 12 1 9 9 -2 7 -10 15 -17 17 -8
3 -12 -1 -9 -9z"/>
<path d="M2845 4770 c-15 -25 -7 -84 15 -102 27 -22 53 -13 44 16 -4 11 -9 23
-13 26 -3 3 -13 20 -22 39 -11 25 -18 31 -24 21z"/>
<path d="M2900 4558 c0 -14 23 -58 32 -58 4 0 8 -6 8 -12 0 -7 16 -30 35 -51
19 -22 40 -57 46 -80 9 -35 8 -42 -8 -51 -10 -5 -20 -9 -23 -9 -3 0 -14 -6
-25 -13 -11 -8 -28 -14 -38 -14 -16 0 -18 5 -14 29 5 22 0 34 -18 51 -23 22
-26 22 -82 8 -48 -12 -67 -12 -106 -2 -55 14 -67 7 -92 -52 -11 -27 -20 -34
-42 -34 -22 0 -25 -2 -13 -10 8 -5 26 -10 39 -10 17 0 22 -4 17 -16 -3 -9 -6
-18 -6 -20 0 -2 -8 -4 -17 -5 -15 0 -15 -2 2 -8 19 -8 19 -8 -2 -15 -13 -4
-23 -15 -23 -26 0 -21 -64 -65 -84 -57 -7 3 -19 1 -27 -4 -11 -7 -11 -9 4 -9
9 0 17 -4 17 -10 0 -5 -4 -10 -9 -10 -24 0 -56 -47 -59 -85 -3 -58 3 -70 28
-45 26 26 52 26 68 -1 10 -15 21 -19 45 -17 28 3 32 7 30 29 -2 23 3 28 33 34
55 10 238 7 280 -4 48 -14 78 -31 53 -31 -22 0 -32 -29 -17 -47 22 -27 -12
-34 -137 -29 -80 3 -130 0 -149 -8 -27 -11 -22 -13 68 -23 126 -15 201 -11
226 12 11 10 20 14 20 10 0 -4 11 4 24 20 17 19 25 23 28 14 3 -9 11 -2 22 19
14 27 21 31 42 26 25 -7 26 -6 18 42 -9 65 -17 84 -47 114 -14 14 -39 37 -54
53 -16 15 -35 27 -44 27 -8 0 -19 4 -25 10 -8 8 -37 16 -66 19 -5 1 -8 5 -8
10 0 11 47 -1 78 -20 29 -18 42 -1 15 21 l-23 18 38 7 c108 20 131 93 54 170
-28 28 -52 70 -52 91 0 8 -5 14 -11 14 -6 0 -19 10 -30 23 -10 12 -18 19 -19
15z m-117 -248 c58 0 96 -11 90 -25 -2 -8 -11 -11 -19 -8 -8 3 -14 0 -14 -6 0
-6 -7 -11 -15 -11 -8 0 -15 -6 -15 -14 0 -8 -6 -17 -12 -19 -7 -3 1 -11 19
-18 17 -7 34 -21 36 -30 3 -10 27 -29 53 -42 61 -31 89 -55 98 -84 9 -28 -14
-32 -35 -7 -11 14 -27 16 -91 11 -50 -4 -78 -3 -78 4 0 11 -72 1 -80 -11 -3
-5 -12 -9 -20 -11 -14 -2 -26 1 -76 21 -16 6 -31 2 -59 -17 -51 -34 -64 -17
-25 32 16 21 30 34 30 30 0 -4 14 5 31 19 17 14 36 26 43 26 6 0 17 5 24 12 9
9 7 15 -6 25 -15 12 -14 13 12 7 28 -7 29 -6 22 22 -4 16 -12 31 -17 32 -16 6
-10 35 12 58 17 18 26 21 40 14 10 -6 33 -10 52 -10z m-118 -88 c-3 -3 -11 0
-18 7 -9 10 -8 11 6 5 10 -3 15 -9 12 -12z m-25 -47 c0 -8 -7 -15 -15 -15 -13
0 -14 3 -3 15 16 18 18 18 18 0z"/>
<path d="M2728 4233 c7 -3 16 -2 19 1 4 3 -2 6 -13 5 -11 0 -14 -3 -6 -6z"/>
<path d="M2730 4150 c0 -5 5 -10 10 -10 6 0 10 5 10 10 0 6 -4 10 -10 10 -5 0
-10 -4 -10 -10z"/>
<path d="M2505 4140 c-10 -11 -13 -20 -7 -20 18 0 62 22 62 32 0 16 -37 8 -55
-12z"/>
<path d="M3404 3959 c-7 -11 22 -47 30 -38 8 7 -5 49 -15 49 -4 0 -11 -5 -15
-11z"/>
<path d="M1732 4681 c-10 -6 -12 -22 -7 -65 4 -30 11 -53 16 -50 5 3 7 9 4 14
-8 13 16 70 30 70 20 0 30 21 14 31 -18 11 -40 11 -57 0z"/>
<path d="M3734 4619 c-3 -6 0 -18 9 -26 13 -13 14 -12 10 11 -6 29 -9 31 -19
15z"/>
<path d="M2580 3140 c0 -5 7 -10 16 -10 8 0 12 5 9 10 -3 6 -10 10 -16 10 -5
0 -9 -4 -9 -10z"/>
</g>
</svg>
